<svg width="32" height="32" viewBox="0 0 32 32" fill="none" xmlns="http://www.w3.org/2000/svg">
<path d="M4 12C4 11.2928 4.28095 10.6145 4.78105 10.1144C5.28115 9.61432 5.95942 9.33337 6.66667 9.33337H7.90667C8.34558 9.33344 8.77772 9.22517 9.16475 9.01816C9.55179 8.81115 9.88174 8.51182 10.1253 8.14671L11.208 6.52004C11.4516 6.15493 11.7815 5.85559 12.1686 5.64859C12.5556 5.44158 12.9878 5.33331 13.4267 5.33337H18.5733C19.0122 5.33331 19.4444 5.44158 19.8314 5.64859C20.2185 5.85559 20.5484 6.15493 20.792 6.52004L21.8747 8.14671C22.1183 8.51182 22.4482 8.81115 22.8352 9.01816C23.2223 9.22517 23.6544 9.33344 24.0933 9.33337H25.3333C26.0406 9.33337 26.7189 9.61432 27.219 10.1144C27.719 10.6145 28 11.2928 28 12V24C28 24.7073 27.719 25.3856 27.219 25.8857C26.7189 26.3858 26.0406 26.6667 25.3333 26.6667H6.66667C5.95942 26.6667 5.28115 26.3858 4.78105 25.8857C4.28095 25.3856 4 24.7073 4 24V12Z" stroke="#146C94" stroke-width="2" stroke-linecap="round" stroke-linejoin="round"/>
<path d="M20 17.3334C20 18.3942 19.5786 19.4117 18.8284 20.1618C18.0783 20.9119 17.0609 21.3334 16 21.3334C14.9391 21.3334 13.9217 20.9119 13.1716 20.1618C12.4214 19.4117 12 18.3942 12 17.3334C12 16.2725 12.4214 15.2551 13.1716 14.5049C13.9217 13.7548 14.9391 13.3334 16 13.3334C17.0609 13.3334 18.0783 13.7548 18.8284 14.5049C19.5786 15.2551 20 16.2725 20 17.3334Z" stroke="#146C94" stroke-width="2" stroke-linecap="round" stroke-linejoin="round"/>
</svg>
