<svg width="32" height="33" viewBox="0 0 32 33" fill="none" xmlns="http://www.w3.org/2000/svg">
<rect y="0.0905151" width="32" height="32" rx="4" fill="#CE3A19"/>
<path d="M23 11.0905L22.133 23.2325C22.0971 23.7371 21.8713 24.2093 21.5011 24.5541C21.1309 24.8988 20.6439 25.0905 20.138 25.0905H11.862C11.3561 25.0905 10.8691 24.8988 10.4989 24.5541C10.1287 24.2093 9.90292 23.7371 9.867 23.2325L9 11.0905M14 15.0905V21.0905M18 15.0905V21.0905M19 11.0905V8.09052C19 7.8253 18.8946 7.57094 18.7071 7.38341C18.5196 7.19587 18.2652 7.09052 18 7.09052H14C13.7348 7.09052 13.4804 7.19587 13.2929 7.38341C13.1054 7.57094 13 7.8253 13 8.09052V11.0905M8 11.0905H24" stroke="#F6F1F1" stroke-width="2" stroke-linecap="round" stroke-linejoin="round"/>
</svg>
