<svg width="32" height="33" viewBox="0 0 32 33" fill="none" xmlns="http://www.w3.org/2000/svg">
<rect y="0.94104" width="32" height="32" rx="4" fill="#AFD3E2"/>
<path d="M23 11.941L22.133 24.083C22.0971 24.5876 21.8713 25.0599 21.5011 25.4046C21.1309 25.7494 20.6439 25.9411 20.138 25.941H11.862C11.3561 25.9411 10.8691 25.7494 10.4989 25.4046C10.1287 25.0599 9.90292 24.5876 9.867 24.083L9 11.941M14 15.941V21.941M18 15.941V21.941M19 11.941V8.94104C19 8.67582 18.8946 8.42147 18.7071 8.23393C18.5196 8.0464 18.2652 7.94104 18 7.94104H14C13.7348 7.94104 13.4804 8.0464 13.2929 8.23393C13.1054 8.42147 13 8.67582 13 8.94104V11.941M8 11.941H24" stroke="#146C94" stroke-width="2" stroke-linecap="round" stroke-linejoin="round"/>
</svg>
