<svg width="32" height="32" viewBox="0 0 32 32" fill="none" xmlns="http://www.w3.org/2000/svg">
<rect width="32" height="32" rx="4" fill="#50CBFF"/>
<path d="M12.6667 16.6667H19.6667M16.1667 13.1667V20.1667M22 26H10.3333C9.71449 26 9.121 25.7542 8.68342 25.3166C8.24583 24.879 8 24.2855 8 23.6667V7.33333C8 6.71449 8.24583 6.121 8.68342 5.68342C9.121 5.24583 9.71449 5 10.3333 5H16.8503C17.1597 5.00007 17.4564 5.12303 17.6752 5.34183L23.9915 11.6582C24.2103 11.8769 24.3333 12.1736 24.3333 12.483V23.6667C24.3333 24.2855 24.0875 24.879 23.6499 25.3166C23.2123 25.7542 22.6188 26 22 26Z" stroke="#F6F1F1" stroke-width="2" stroke-linecap="round" stroke-linejoin="round"/>
</svg>
