<svg width="32" height="33" viewBox="0 0 32 33" fill="none" xmlns="http://www.w3.org/2000/svg">
<rect y="0.94104" width="32" height="32" rx="4" fill="#AFD3E2"/>
<path d="M15 9.94102H10C9.46957 9.94102 8.96086 10.1517 8.58579 10.5268C8.21071 10.9019 8 11.4106 8 11.941V22.941C8 23.4715 8.21071 23.9802 8.58579 24.3552C8.96086 24.7303 9.46957 24.941 10 24.941H21C21.5304 24.941 22.0391 24.7303 22.4142 24.3552C22.7893 23.9802 23 23.4715 23 22.941V17.941M21.586 8.52702C21.7705 8.336 21.9912 8.18363 22.2352 8.07882C22.4792 7.974 22.7416 7.91883 23.0072 7.91652C23.2728 7.91421 23.5361 7.96481 23.7819 8.06538C24.0277 8.16594 24.251 8.31444 24.4388 8.50223C24.6266 8.69001 24.7751 8.91332 24.8756 9.15911C24.9762 9.4049 25.0268 9.66826 25.0245 9.93382C25.0222 10.1994 24.967 10.4618 24.8622 10.7058C24.7574 10.9498 24.605 11.1705 24.414 11.355L15.828 19.941H13V17.113L21.586 8.52702Z" stroke="#146C94" stroke-width="2" stroke-linecap="round" stroke-linejoin="round"/>
</svg>
