<svg width="32" height="33" viewBox="0 0 32 33" fill="none" xmlns="http://www.w3.org/2000/svg">
<rect y="0.0905151" width="32" height="32" rx="4" fill="#19CE98"/>
<path d="M15 9.09049H10C9.46957 9.09049 8.96086 9.30121 8.58579 9.67628C8.21071 10.0514 8 10.5601 8 11.0905V22.0905C8 22.6209 8.21071 23.1296 8.58579 23.5047C8.96086 23.8798 9.46957 24.0905 10 24.0905H21C21.5304 24.0905 22.0391 23.8798 22.4142 23.5047C22.7893 23.1296 23 22.6209 23 22.0905V17.0905M21.586 7.67649C21.7705 7.48547 21.9912 7.33311 22.2352 7.22829C22.4792 7.12347 22.7416 7.0683 23.0072 7.06599C23.2728 7.06369 23.5361 7.11429 23.7819 7.21485C24.0277 7.31541 24.251 7.46392 24.4388 7.6517C24.6266 7.83949 24.7751 8.06279 24.8756 8.30859C24.9762 8.55438 25.0268 8.81774 25.0245 9.0833C25.0222 9.34886 24.967 9.6113 24.8622 9.8553C24.7574 10.0993 24.605 10.32 24.414 10.5045L15.828 19.0905H13V16.2625L21.586 7.67649Z" stroke="#F6F1F1" stroke-width="2" stroke-linecap="round" stroke-linejoin="round"/>
</svg>
