<svg width="75" height="75" viewBox="0 0 75 75" fill="none" xmlns="http://www.w3.org/2000/svg">
<path d="M17.722 54.0618H24.6704V37.1873L14.7441 29.7426V51.084C14.7441 52.7317 16.0792 54.0618 17.722 54.0618Z" fill="#4285F4"/>
<path d="M48.4932 54.0618H55.4415C57.0893 54.0618 58.4194 52.7268 58.4194 51.084V29.7426L48.4932 37.1873" fill="#34A853"/>
<path d="M48.4932 24.2834V37.1875L58.4194 29.7428V25.7723C58.4194 22.0897 54.2156 19.9903 51.2725 22.1989" fill="#FBBC04"/>
<path d="M24.6704 37.1873V24.2832L36.5819 33.2168L48.4933 24.2832V37.1873L36.5819 46.1209" fill="#EA4335"/>
<path d="M14.7441 25.7723V29.7428L24.6704 37.1875V24.2834L21.891 22.1989C18.9429 19.9903 14.7441 22.0897 14.7441 25.7723" fill="#C5221F"/>
</svg>
