<svg width="32" height="33" viewBox="0 0 32 33" fill="none" xmlns="http://www.w3.org/2000/svg">
<rect y="0.0905151" width="32" height="32" rx="4" fill="#19A7CE"/>
<path d="M19 16.0905C19 16.8862 18.6839 17.6492 18.1213 18.2118C17.5587 18.7744 16.7956 19.0905 16 19.0905C15.2044 19.0905 14.4413 18.7744 13.8787 18.2118C13.3161 17.6492 13 16.8862 13 16.0905C13 15.2949 13.3161 14.5318 13.8787 13.9692C14.4413 13.4066 15.2044 13.0905 16 13.0905C16.7956 13.0905 17.5587 13.4066 18.1213 13.9692C18.6839 14.5318 19 15.2949 19 16.0905Z" stroke="#F6F1F1" stroke-width="2" stroke-linecap="round" stroke-linejoin="round"/>
<path d="M6.45801 16.0905C7.73201 12.0335 11.523 9.09052 16 9.09052C20.478 9.09052 24.268 12.0335 25.542 16.0905C24.268 20.1475 20.478 23.0905 16 23.0905C11.523 23.0905 7.73201 20.1475 6.45801 16.0905Z" stroke="#F6F1F1" stroke-width="2" stroke-linecap="round" stroke-linejoin="round"/>
</svg>
