<svg width="32" height="33" viewBox="0 0 32 33" fill="none" xmlns="http://www.w3.org/2000/svg">
<rect y="0.94104" width="32" height="32" rx="4" fill="#AFD3E2"/>
<path d="M19 16.941C19 17.7367 18.6839 18.4998 18.1213 19.0624C17.5587 19.625 16.7956 19.941 16 19.941C15.2044 19.941 14.4413 19.625 13.8787 19.0624C13.3161 18.4998 13 17.7367 13 16.941C13 16.1454 13.3161 15.3823 13.8787 14.8197C14.4413 14.2571 15.2044 13.941 16 13.941C16.7956 13.941 17.5587 14.2571 18.1213 14.8197C18.6839 15.3823 19 16.1454 19 16.941Z" stroke="#146C94" stroke-width="2" stroke-linecap="round" stroke-linejoin="round"/>
<path d="M6.45801 16.941C7.73201 12.884 11.523 9.94104 16 9.94104C20.478 9.94104 24.268 12.884 25.542 16.941C24.268 20.998 20.478 23.941 16 23.941C11.523 23.941 7.73201 20.998 6.45801 16.941Z" stroke="#146C94" stroke-width="2" stroke-linecap="round" stroke-linejoin="round"/>
</svg>
